<svg xmlns="http://www.w3.org/2000/svg" width="167" height="46" viewBox="0 0 167 46" fill="none">
<path d="M43.2113 31.844C41.5236 31.9875 40.135 31.882 39.1651 31.7553C37.533 31.54 36.5461 31.3964 35.5164 30.6744C35.0977 30.3831 34.068 29.64 33.6279 28.2551C33.0725 26.5113 33.8586 25.0124 34.0552 24.6324C34.6448 23.4966 35.5207 22.8675 35.871 22.6184C37.9261 21.1702 45.3133 17.9697 55.5418 14.233C52.7177 11.9573 50.1798 11.3324 48.7314 11.1255C42.8609 10.2852 37.9218 13.8699 33.8416 16.8339C31.0601 18.8564 29.052 20.8831 27.7617 22.3186V34.2084C27.9625 30.7251 28.4026 28.2466 28.7188 26.7773C28.9409 25.7471 29.146 24.9744 29.6117 24.0962C30.6201 22.1793 32.1411 21.1026 33.1152 20.4693C37.9774 17.3068 44.7323 15.0817 44.775 15.2041C44.8134 15.3097 38.7806 17.6488 33.8031 21.0182C33.1494 21.4615 31.8762 22.3524 31.0644 23.9906C30.7525 24.6197 30.1159 26.1524 30.4192 28.0862C30.7696 30.3029 32.2009 32.0171 33.6707 32.9291C36.3709 34.6053 40.2333 34.2084 43.2113 31.844Z" fill="#000000"/>
<path d="M55.4503 15.719C54.9974 17.1039 54.4548 18.3832 53.7926 19.6077C53.1346 20.8237 52.3655 21.9637 51.4768 23.0277C51.417 23.0952 51.3145 23.1459 51.2205 23.167C48.0204 23.8383 44.8245 24.5055 41.6244 25.1768C41.086 25.2908 40.5477 25.4132 40.0179 25.5526C39.3898 25.7172 38.8386 26.0255 38.39 26.4941C38.0739 26.8192 38.155 27.0684 38.5908 27.2077C39.0565 27.3555 39.5137 27.2457 39.9709 27.1781C41.5987 26.9459 43.2223 26.7095 44.8458 26.4561C46.4694 26.207 48.0887 25.9368 49.7123 25.675C49.8148 25.6581 49.9216 25.6497 50.0754 25.6328C49.7294 26.0888 49.4217 26.511 49.1013 26.9206C48.3408 27.8917 47.5504 28.8417 46.6019 29.6439C46.4053 29.8086 46.2002 29.969 45.9952 30.1295C45.6149 30.4293 45.1791 30.5517 44.7006 30.5475C42.6498 30.5475 40.5947 30.5475 38.5438 30.5475C37.4586 30.5475 36.5144 30.197 35.7368 29.4244C34.4037 28.1028 34.3055 26.1099 35.4847 24.6363C36.0359 23.9481 36.7152 23.4499 37.5312 23.1121C41.4321 21.5034 45.3287 19.8863 49.2295 18.2777C51.1265 17.4966 53.0321 16.7281 54.9376 15.9512C55.0871 15.8794 55.241 15.8119 55.4503 15.719Z" fill="#000000"/>
<path d="M5.72276 25.629C6.11157 25.6882 6.45764 25.7473 6.80372 25.7979C9.33734 26.1906 11.8667 26.5833 14.4003 26.9675C15.1309 27.0773 15.8658 27.1744 16.6007 27.2504C16.8271 27.2715 17.0792 27.2462 17.2928 27.1702C17.6346 27.0477 17.6731 26.8366 17.4424 26.5537C17.0963 26.1315 16.6477 25.8317 16.135 25.6755C15.4855 25.477 14.8147 25.3208 14.1482 25.1815C10.9524 24.5059 7.75222 23.8473 4.55636 23.1717C4.44527 23.1464 4.3171 23.0788 4.24873 22.9902C2.65935 21.069 1.11696 18.1684 0.390625 15.749C0.463258 15.7701 0.518801 15.7786 0.570071 15.7997C6.4491 18.2232 12.3281 20.6468 18.2029 23.083C19.5103 23.6277 20.4545 24.565 20.9031 25.9119C21.4799 27.6557 20.5656 29.4797 18.7925 30.2186C18.2926 30.4255 17.7713 30.5353 17.233 30.5395C15.1565 30.548 13.0801 30.5395 11.0036 30.5437C10.4738 30.5437 10.0295 30.3579 9.6236 30.0328C8.64091 29.2433 7.82058 28.3017 7.03016 27.3348C6.62427 26.8408 6.24401 26.3257 5.85521 25.819C5.80394 25.7684 5.77831 25.7135 5.72276 25.629Z" fill="#000000"/>
<path d="M43.2125 31.8439C40.2346 34.2083 36.3722 34.6095 33.6719 32.9332C32.2022 32.0212 30.7709 30.307 30.4205 28.0946C30.1172 26.1608 30.7538 24.6281 31.0657 23.999C31.8775 22.3608 33.1507 21.4657 33.8044 21.0265C38.7819 17.6572 44.8147 15.3181 44.7763 15.2125C44.7336 15.0901 37.9787 17.3152 33.1165 20.4776C32.1424 21.111 30.6256 22.1876 29.613 24.1045C29.1516 24.9828 28.9422 25.7554 28.7201 26.7857C28.4124 28.2128 27.9895 30.5983 27.7801 33.9381C27.7758 33.9846 27.7758 34.031 27.7716 34.0774C27.7673 34.031 27.7673 33.9846 27.763 33.9381C27.5537 30.6026 27.1307 28.2128 26.823 26.7857C26.6009 25.7554 26.3958 24.9828 25.9301 24.1045C24.9175 22.1876 23.4007 21.111 22.4266 20.4776C17.5644 17.3152 10.8095 15.0901 10.7668 15.2125C10.7284 15.3181 16.7612 17.6572 21.7387 21.0265C22.3924 21.4699 23.6656 22.3608 24.4774 23.999C24.7893 24.6281 25.4259 26.1608 25.1226 28.0946C24.7765 30.307 23.3409 32.0254 21.8712 32.9332C19.1709 34.6095 15.3085 34.2083 12.3306 31.8439C14.0182 31.9875 15.4068 31.8861 16.3767 31.7552C18.0088 31.5399 18.9957 31.3963 20.0254 30.6743C20.4441 30.383 21.4738 29.6399 21.9139 28.255C22.4693 26.5112 21.6832 25.0123 21.4866 24.6323C20.897 23.4965 20.0212 22.8674 19.6708 22.6183C17.6157 21.1701 10.2285 17.9696 0 14.233C2.82415 11.9572 5.36205 11.3323 6.81044 11.1254C12.6809 10.2852 17.62 13.8699 21.7003 16.8339C24.4774 18.8521 26.4812 20.8745 27.7716 22.3101C29.0619 20.8745 31.07 18.8521 33.8428 16.8339C37.9231 13.8699 42.8622 10.281 48.7327 11.1254C50.1811 11.3323 52.719 11.9572 55.5431 14.233C45.3146 17.9696 37.9274 21.1701 35.8723 22.6183C35.522 22.8674 34.6461 23.4965 34.0565 24.6323C33.8599 25.0123 33.0781 26.5112 33.6292 28.255C34.0693 29.6357 35.099 30.383 35.5177 30.6743C36.5474 31.3963 37.5343 31.5357 39.1664 31.7552C40.132 31.8861 41.5206 31.9875 43.2125 31.8439Z" fill="#000000"/>
<path d="M27.782 33.9337V34.2131C27.7777 34.1665 27.7777 34.12 27.7734 34.0734C27.7777 34.0268 27.782 33.9803 27.782 33.9337Z" fill="#000000"/>
<path d="M27.7703 34.0734C27.766 34.12 27.766 34.1665 27.7617 34.2131V33.9337C27.766 33.9803 27.7703 34.0268 27.7703 34.0734Z" fill="#000000"/>
<path d="M87.675 23.3783C87.675 24.9683 87.41 26.4283 86.88 27.7583C86.35 29.0883 85.605 30.2333 84.645 31.1933C83.685 32.1533 82.53 32.8983 81.18 33.4283C79.83 33.9583 78.33 34.2233 76.68 34.2233H68.415V12.5333H76.68C78.33 12.5333 79.83 12.8033 81.18 13.3433C82.53 13.8733 83.685 14.6183 84.645 15.5783C85.605 16.5283 86.35 17.6683 86.88 18.9983C87.41 20.3283 87.675 21.7883 87.675 23.3783ZM83.535 23.3783C83.535 22.1883 83.375 21.1233 83.055 20.1833C82.745 19.2333 82.29 18.4333 81.69 17.7833C81.1 17.1233 80.38 16.6183 79.53 16.2683C78.69 15.9183 77.74 15.7433 76.68 15.7433H72.465V31.0133H76.68C77.74 31.0133 78.69 30.8383 79.53 30.4883C80.38 30.1383 81.1 29.6383 81.69 28.9883C82.29 28.3283 82.745 27.5283 83.055 26.5883C83.375 25.6383 83.535 24.5683 83.535 23.3783ZM114.757 12.5333V34.2233H111.202V20.2133C111.202 19.6533 111.232 19.0483 111.292 18.3983L104.737 30.7133C104.427 31.3033 103.952 31.5983 103.312 31.5983H102.742C102.102 31.5983 101.627 31.3033 101.317 30.7133L94.6873 18.3533C94.7173 18.6833 94.7423 19.0083 94.7623 19.3283C94.7823 19.6483 94.7923 19.9433 94.7923 20.2133V34.2233H91.2373V12.5333H94.2823C94.4623 12.5333 94.6173 12.5383 94.7473 12.5483C94.8773 12.5583 94.9923 12.5833 95.0923 12.6233C95.2023 12.6633 95.2973 12.7283 95.3773 12.8183C95.4673 12.9083 95.5523 13.0283 95.6323 13.1783L102.127 25.2233C102.297 25.5433 102.452 25.8733 102.592 26.2133C102.742 26.5533 102.887 26.9033 103.027 27.2633C103.167 26.8933 103.312 26.5383 103.462 26.1983C103.612 25.8483 103.772 25.5133 103.942 25.1933L110.347 13.1783C110.427 13.0283 110.512 12.9083 110.602 12.8183C110.692 12.7283 110.787 12.6633 110.887 12.6233C110.997 12.5833 111.117 12.5583 111.247 12.5483C111.377 12.5383 111.532 12.5333 111.712 12.5333H114.757ZM123.647 34.2233H119.597V12.5333H123.647V34.2233ZM127.708 18.5783C127.858 17.5383 128.148 16.6283 128.578 15.8483C129.008 15.0583 129.543 14.4033 130.183 13.8833C130.833 13.3533 131.573 12.9583 132.403 12.6983C133.243 12.4283 134.143 12.2933 135.103 12.2933C136.103 12.2933 137.003 12.4383 137.803 12.7283C138.613 13.0083 139.303 13.4033 139.873 13.9133C140.443 14.4133 140.878 15.0033 141.178 15.6833C141.488 16.3633 141.643 17.0983 141.643 17.8883C141.643 18.5783 141.563 19.1883 141.403 19.7183C141.253 20.2383 141.033 20.6933 140.743 21.0833C140.453 21.4733 140.093 21.8033 139.663 22.0733C139.233 22.3433 138.748 22.5683 138.208 22.7483C139.508 23.1583 140.478 23.7833 141.118 24.6233C141.758 25.4633 142.078 26.5183 142.078 27.7883C142.078 28.8683 141.878 29.8233 141.478 30.6533C141.078 31.4833 140.538 32.1833 139.858 32.7533C139.178 33.3133 138.388 33.7383 137.488 34.0283C136.598 34.3183 135.653 34.4633 134.653 34.4633C133.563 34.4633 132.613 34.3383 131.803 34.0883C130.993 33.8383 130.288 33.4683 129.688 32.9783C129.088 32.4883 128.578 31.8883 128.158 31.1783C127.738 30.4683 127.378 29.6483 127.078 28.7183L128.713 28.0433C129.143 27.8633 129.543 27.8183 129.913 27.9083C130.293 27.9883 130.568 28.1883 130.738 28.5083C130.918 28.8583 131.113 29.2033 131.323 29.5433C131.543 29.8833 131.803 30.1883 132.103 30.4583C132.403 30.7183 132.753 30.9333 133.153 31.1033C133.563 31.2633 134.048 31.3433 134.608 31.3433C135.238 31.3433 135.788 31.2433 136.258 31.0433C136.728 30.8333 137.118 30.5633 137.428 30.2333C137.748 29.9033 137.983 29.5383 138.133 29.1383C138.293 28.7283 138.373 28.3183 138.373 27.9083C138.373 27.3883 138.318 26.9183 138.208 26.4983C138.098 26.0683 137.868 25.7033 137.518 25.4033C137.168 25.1033 136.663 24.8683 136.003 24.6983C135.353 24.5283 134.478 24.4433 133.378 24.4433V21.8033C134.288 21.7933 135.043 21.7083 135.643 21.5483C136.243 21.3883 136.718 21.1683 137.068 20.8883C137.428 20.5983 137.678 20.2533 137.818 19.8533C137.958 19.4533 138.028 19.0133 138.028 18.5333C138.028 17.5133 137.743 16.7383 137.173 16.2083C136.603 15.6783 135.843 15.4133 134.893 15.4133C134.453 15.4133 134.048 15.4783 133.678 15.6083C133.308 15.7283 132.973 15.9033 132.673 16.1333C132.383 16.3533 132.138 16.6133 131.938 16.9133C131.738 17.2133 131.588 17.5433 131.488 17.9033C131.318 18.3633 131.093 18.6683 130.813 18.8183C130.543 18.9683 130.158 19.0033 129.658 18.9233L127.708 18.5783ZM165.165 23.3783C165.165 24.9683 164.9 26.4283 164.37 27.7583C163.84 29.0883 163.095 30.2333 162.135 31.1933C161.175 32.1533 160.02 32.8983 158.67 33.4283C157.32 33.9583 155.82 34.2233 154.17 34.2233H145.905V12.5333H154.17C155.82 12.5333 157.32 12.8033 158.67 13.3433C160.02 13.8733 161.175 14.6183 162.135 15.5783C163.095 16.5283 163.84 17.6683 164.37 18.9983C164.9 20.3283 165.165 21.7883 165.165 23.3783ZM161.025 23.3783C161.025 22.1883 160.865 21.1233 160.545 20.1833C160.235 19.2333 159.78 18.4333 159.18 17.7833C158.59 17.1233 157.87 16.6183 157.02 16.2683C156.18 15.9183 155.23 15.7433 154.17 15.7433H149.955V31.0133H154.17C155.23 31.0133 156.18 30.8383 157.02 30.4883C157.87 30.1383 158.59 29.6383 159.18 28.9883C159.78 28.3283 160.235 27.5283 160.545 26.5883C160.865 25.6383 161.025 24.5683 161.025 23.3783Z" fill="#000000"/>
</svg>