<svg width="67" height="75" viewBox="0 0 67 75" fill="none" xmlns="http://www.w3.org/2000/svg">
<path d="M9.67283 44.6199C9.74566 44.1144 11.7506 39.2034 12.744 36.8111L14.5671 35.1944L17.573 33.7815L20.446 34.1399L21.3637 29.4681L23.8243 16.7896L25.3522 12.1279L28.7772 9.04063L32.0625 10.9374L32.4259 16.8279L31.3232 31.6592L40.0633 18.7734L44.994 12.7226L46.6827 11.5759L49.5255 13.7647L51.0511 16.2197L44.6793 27.2561L45.3836 29.2369L49.8495 31.8152L48.7365 35.7583L49.68 36.8506L51.4766 37.8878L53.3933 40.0211L52.1025 44.2721L42.5003 60.9036L35.5322 65.5043L29.4004 67.2341L16.8235 61.7524L9.98591 53.5613C9.8512 50.7914 9.6 45.1254 9.67283 44.6199Z" fill="white"/>
<path d="M52.4522 36.6946C50.0364 35.2999 46.9376 36.1302 45.5429 38.546L41.1172 46.2115C39.7225 48.6272 40.5528 51.726 42.9686 53.1208C43.7658 53.581 44.6387 53.7988 45.4989 53.7961L43.0774 57.9902C38.9956 65.06 29.926 67.492 22.854 63.409L18.0116 60.6132C16.1237 59.5233 14.4937 57.9865 13.2932 56.1661C10.8619 52.4818 10.2986 47.8026 11.7877 43.6453L13.7829 38.0603C13.8762 37.8076 13.9897 37.5606 14.1249 37.3263C15.1669 35.5216 17.2887 34.6791 19.2828 35.2815L34.9346 39.9962C34.5776 40.999 33.9259 41.8697 33.04 42.5089C31.8624 43.365 30.4217 43.6955 28.9878 43.4429L23.2767 42.435C22.373 42.2753 21.4436 42.5096 20.7217 43.0771C20.0021 43.6457 19.5614 44.4951 19.5065 45.4095L19.2979 48.8663C19.2558 49.5663 19.7868 50.1589 20.4843 50.2054C21.182 50.2462 21.7804 49.7156 21.8234 49.019L22.0333 45.56C22.047 45.2935 22.2005 45.1338 22.2909 45.0633C22.3802 44.9894 22.5706 44.8773 22.8385 44.924L28.5496 45.9319C30.6619 46.3045 32.7827 45.8177 34.5226 44.5591C36.2625 43.3006 37.3884 41.4363 37.695 39.3121C37.7843 38.692 37.4058 38.1086 36.8096 37.922L20.0124 32.8644C16.8863 31.921 13.5658 33.2366 11.9333 36.0641C11.7247 36.4255 11.5511 36.8071 11.4026 37.2061L9.40363 42.7977C7.64906 47.6981 8.31228 53.2206 11.1811 57.5634C12.5957 59.7059 14.5196 61.5175 16.7449 62.8022L21.5873 65.598C29.8661 70.3778 40.4891 67.5313 45.2676 59.2547L54.3036 43.6039C55.6983 41.1882 54.868 38.0894 52.4522 36.6946ZM47.6878 50.005C46.991 51.2118 45.4422 51.6286 44.2332 50.9306C43.0242 50.2326 42.6109 48.6827 43.3076 47.476L47.7333 39.8105C48.43 38.6037 49.9789 38.1868 51.1879 38.8848C52.3968 39.5828 52.8102 41.1327 52.1135 42.3394L47.6878 50.005Z" fill="black"/>
<path d="M47.733 39.8103L50.262 35.43C51.6567 33.0142 50.8264 29.9154 48.4106 28.5206C45.9948 27.1259 42.896 27.9562 41.5013 30.372L35.1788 41.3228C33.7841 43.7386 34.6144 46.8374 37.0302 48.2321C39.4437 49.6256 42.5448 48.7965 43.9395 46.3808L46.4685 42.0004C46.8175 41.3959 46.6101 40.622 46.0057 40.273C45.4012 39.924 44.6273 40.1314 44.2783 40.7359L41.7493 45.1162C41.0525 46.323 39.5037 46.7399 38.2947 46.0419C37.0857 45.3439 36.6724 43.794 37.3691 42.5873L43.6914 31.6366C44.3882 30.4298 45.9371 30.013 47.146 30.711C48.355 31.4089 48.7684 32.9588 48.0717 34.1655L45.5427 38.5459C45.1937 39.1504 45.4011 39.9243 46.0055 40.2733C46.61 40.6223 47.384 40.4148 47.733 39.8103Z" fill="black"/>
<path d="M49.263 11.4915C46.9173 10.1373 43.9592 10.7744 42.3347 13.0369L32.3282 28.9626L33.8974 13.9389C34.0603 12.4882 33.5903 11.0312 32.6062 9.94909C31.6206 8.8691 30.215 8.25904 28.754 8.28575C26.3871 8.32378 24.3773 9.96392 23.8657 12.2763L19.0766 33.9243C18.955 34.479 19.2122 35.0247 19.6787 35.2941C19.7882 35.3573 19.9088 35.4065 20.0385 35.4346C20.7195 35.5853 21.3945 35.1545 21.5453 34.4736L26.3335 12.8222C26.5903 11.6593 27.604 10.8341 28.7939 10.8114C29.5311 10.799 30.2412 11.1068 30.7331 11.6507C31.2295 12.1972 31.4678 12.9275 31.3826 13.6668L29.5733 30.9932C29.4757 31.9209 30.023 32.7684 30.9093 33.0845C31.7941 33.388 32.7518 33.0444 33.2464 32.2583L44.4344 14.448C45.2516 13.3107 46.7829 12.9801 47.9984 13.6818C49.2972 14.4317 49.7433 16.0968 48.9935 17.3955L41.5014 30.3722C41.1524 30.9767 41.3598 31.7506 41.9643 32.0996C42.5688 32.4486 43.3426 32.2412 43.6916 31.6367L51.1837 18.6601C52.6304 16.1543 51.7708 12.9394 49.263 11.4915Z" fill="black"/>
</svg>
