<svg width="70" height="70" viewBox="0 0 70 70" fill="none" xmlns="http://www.w3.org/2000/svg">
<path d="M12.7215 38.9589C18.4399 38.9772 25.1518 39.7954 29.6342 42.9915C34.1167 46.1876 37.0778 52.2663 38.9588 57.6665C38.9772 51.9481 39.7954 45.2362 42.9915 40.7538C46.1876 36.2713 52.2662 33.3102 57.6665 31.4291C51.948 31.4108 45.2362 30.5926 40.7538 27.3964C36.2712 24.2004 33.3102 18.1217 31.4291 12.7215C31.4108 18.4399 30.5925 25.1518 27.3964 29.6342C27.3964 29.6342 27.3964 29.6342 27.3964 29.6342M12.7215 38.9589L9.16254 39.0447C15.2225 37.2785 22.9521 34.1449 26.5822 29.0537L27.3964 29.6342M12.7215 38.9589C18.1217 37.0778 24.2004 34.1167 27.3964 29.6342M12.7215 38.9589L27.3964 29.6342" fill="#FF7347" stroke="black" stroke-width="2"/>
</svg>
