<svg width="53" height="53" viewBox="0 0 53 53" fill="none" xmlns="http://www.w3.org/2000/svg">
<g id="timer">
<path id="Vector" d="M37.4982 8.8125V5.625C37.4982 4.13316 36.9056 2.70242 35.8507 1.64752C34.7958 0.592632 33.365 0 31.8732 0H28.1232C26.6314 0 25.2006 0.592632 24.1457 1.64752C23.0908 2.70242 22.4982 4.13316 22.4982 5.625V8.8125C17.8352 10.4525 13.8421 13.5825 11.1357 17.7187C11.0003 17.9256 10.9069 18.1571 10.861 18.4C10.815 18.6429 10.8173 18.8925 10.8678 19.1345C10.9698 19.6233 11.2617 20.0515 11.6795 20.325C12.0972 20.5985 12.6064 20.6949 13.0952 20.5929C13.584 20.4909 14.0122 20.199 14.2857 19.7812C16.244 16.7703 19.0259 14.3852 22.3006 12.9096C25.5752 11.434 29.2048 10.93 32.7576 11.4576C36.3104 11.9851 39.6369 13.522 42.3415 15.8855C45.0461 18.2489 47.0149 21.3394 48.0139 24.7894C49.0128 28.2395 48.9998 31.9038 47.9764 35.3467C46.953 38.7896 44.9623 41.866 42.241 44.2102C39.5197 46.5544 36.1823 48.0676 32.6259 48.57C29.0694 49.0723 25.4435 48.5425 22.1795 47.0437C21.7269 46.8374 21.211 46.8192 20.745 46.9933C20.2791 47.1673 19.9015 47.5193 19.6951 47.9719C19.4887 48.4244 19.4706 48.9404 19.6446 49.4063C19.8187 49.8722 20.1707 50.2499 20.6232 50.4562C23.3906 51.7578 26.3942 52.4815 29.4507 52.5831C32.5072 52.6848 35.5523 52.1624 38.4001 51.0477C41.2478 49.933 43.8385 48.2495 46.0138 46.0999C48.189 43.9504 49.9033 41.38 51.0518 38.5457C52.2003 35.7114 52.759 32.6727 52.6937 29.6152C52.6284 26.5578 51.9406 23.5457 50.6721 20.763C49.4036 17.9803 47.5812 15.4854 45.3162 13.4307C43.0511 11.376 40.391 9.80461 37.4982 8.8125ZM26.2482 7.85625V5.625C26.2482 5.12772 26.4457 4.65081 26.7974 4.29917C27.149 3.94754 27.6259 3.75 28.1232 3.75H31.8732C32.3705 3.75 32.8474 3.94754 33.199 4.29917C33.5507 4.65081 33.7482 5.12772 33.7482 5.625V7.8375C32.5098 7.62043 31.2554 7.50753 29.9982 7.5C28.7405 7.51459 27.4862 7.63375 26.2482 7.85625Z" fill="#888888"/>
<path id="Vector_2" d="M40.8375 21.3375C40.5281 20.9512 40.0786 20.7029 39.5868 20.6467C39.0951 20.5905 38.6011 20.731 38.2125 21.0375L32.9438 25.2375C32.0661 24.6725 31.0438 24.373 30 24.375C28.8875 24.375 27.7999 24.7049 26.8749 25.323C25.9499 25.9411 25.2289 26.8196 24.8032 27.8475C24.3774 28.8753 24.266 30.0063 24.4831 31.0974C24.7001 32.1886 25.2359 33.1909 26.0225 33.9775C26.8092 34.7642 27.8115 35.2999 28.9026 35.517C29.9938 35.734 31.1248 35.6226 32.1526 35.1969C33.1804 34.7711 34.0589 34.0502 34.677 33.1251C35.2951 32.2001 35.625 31.1126 35.625 30C35.6226 29.3602 35.5083 28.7256 35.2875 28.125L40.5375 23.925C40.913 23.6167 41.1542 23.1746 41.2102 22.6919C41.2661 22.2092 41.1325 21.7236 40.8375 21.3375ZM30 31.875C29.6292 31.875 29.2667 31.7651 28.9583 31.5591C28.65 31.353 28.4096 31.0602 28.2677 30.7176C28.1258 30.375 28.0887 29.998 28.161 29.6342C28.2334 29.2705 28.412 28.9364 28.6742 28.6742C28.9364 28.412 29.2705 28.2334 29.6342 28.1611C29.9979 28.0887 30.3749 28.1259 30.7175 28.2678C31.0601 28.4097 31.353 28.65 31.559 28.9583C31.765 29.2667 31.875 29.6292 31.875 30C31.875 30.4973 31.6775 30.9742 31.3258 31.3259C30.9742 31.6775 30.4973 31.875 30 31.875Z" fill="#888888"/>
<path id="Vector_3" d="M16.875 24.375H5.625C5.12772 24.375 4.65081 24.5725 4.29918 24.9242C3.94754 25.2758 3.75 25.7527 3.75 26.25C3.75 26.7473 3.94754 27.2242 4.29918 27.5758C4.65081 27.9275 5.12772 28.125 5.625 28.125H16.875C17.3723 28.125 17.8492 27.9275 18.2008 27.5758C18.5525 27.2242 18.75 26.7473 18.75 26.25C18.75 25.7527 18.5525 25.2758 18.2008 24.9242C17.8492 24.5725 17.3723 24.375 16.875 24.375Z" fill="#888888"/>
<path id="Vector_4" d="M16.875 31.875H1.875C1.37772 31.875 0.900805 32.0725 0.549175 32.4242C0.197544 32.7758 0 33.2527 0 33.75C0 34.2473 0.197544 34.7242 0.549175 35.0758C0.900805 35.4275 1.37772 35.625 1.875 35.625H16.875C17.3723 35.625 17.8492 35.4275 18.2008 35.0758C18.5525 34.7242 18.75 34.2473 18.75 33.75C18.75 33.2527 18.5525 32.7758 18.2008 32.4242C17.8492 32.0725 17.3723 31.875 16.875 31.875Z" fill="#888888"/>
<path id="Vector_5" d="M16.875 39.375H5.625C5.12772 39.375 4.65081 39.5725 4.29918 39.9242C3.94754 40.2758 3.75 40.7527 3.75 41.25C3.75 41.7473 3.94754 42.2242 4.29918 42.5758C4.65081 42.9275 5.12772 43.125 5.625 43.125H16.875C17.3723 43.125 17.8492 42.9275 18.2008 42.5758C18.5525 42.2242 18.75 41.7473 18.75 41.25C18.75 40.7527 18.5525 40.2758 18.2008 39.9242C17.8492 39.5725 17.3723 39.375 16.875 39.375Z" fill="#888888"/>
</g>
</svg>
