<?xml version="1.0" encoding="UTF-8"?>
<svg xmlns="http://www.w3.org/2000/svg" xmlns:xlink="http://www.w3.org/1999/xlink" width="256px" height="256px" viewBox="0 0 256 256" version="1.1">
<g id="surface1">
<path style=" stroke:none;fill-rule:nonzero;fill:rgb(0%,0%,0%);fill-opacity:1;" d="M 66.238281 177.21875 C 63.652344 178.015625 61.523438 177.429688 60.039062 176.726562 C 57.535156 175.527344 56.023438 174.726562 54.445312 170.710938 C 53.800781 169.089844 52.222656 164.953125 51.550781 157.246094 C 50.699219 147.542969 51.902344 139.199219 52.203125 137.085938 C 53.109375 130.765625 54.449219 127.261719 54.988281 125.875 C 58.136719 117.816406 69.460938 100.003906 85.140625 79.210938 C 80.8125 66.546875 76.921875 63.066406 74.703125 61.914062 C 65.703125 57.238281 58.132812 77.1875 51.875 93.683594 C 47.613281 104.941406 44.535156 116.21875 42.558594 124.207031 L 42.558594 190.378906 C 42.863281 170.992188 43.539062 157.199219 44.023438 149.023438 C 44.363281 143.289062 44.679688 138.988281 45.394531 134.101562 C 46.9375 123.433594 49.269531 117.441406 50.761719 113.917969 C 58.21875 96.316406 68.570312 83.933594 68.636719 84.613281 C 68.695312 85.203125 59.449219 98.21875 51.816406 116.972656 C 50.816406 119.4375 48.863281 124.394531 47.621094 133.511719 C 47.140625 137.015625 46.164062 145.542969 46.628906 156.304688 C 47.167969 168.640625 49.363281 178.183594 51.613281 183.257812 C 55.753906 192.585938 61.675781 190.378906 66.238281 177.21875 Z M 66.238281 177.21875 "/>
<path style=" stroke:none;fill-rule:nonzero;fill:rgb(0%,0%,0%);fill-opacity:1;" d="M 85 87.480469 C 84.308594 95.1875 83.476562 102.304688 82.460938 109.121094 C 81.453125 115.886719 80.273438 122.234375 78.910156 128.152344 C 78.820312 128.53125 78.660156 128.8125 78.519531 128.929688 C 73.613281 132.664062 68.714844 136.378906 63.808594 140.113281 C 62.980469 140.75 62.15625 141.429688 61.34375 142.207031 C 60.382812 143.121094 59.535156 144.835938 58.847656 147.445312 C 58.363281 149.253906 58.488281 150.640625 59.15625 151.417969 C 59.871094 152.238281 60.570312 151.628906 61.273438 151.253906 C 63.769531 149.960938 66.257812 148.644531 68.746094 147.234375 C 71.234375 145.847656 73.71875 144.34375 76.207031 142.886719 C 76.363281 142.792969 76.527344 142.746094 76.761719 142.652344 C 76.230469 145.191406 75.761719 147.539062 75.269531 149.820312 C 74.101562 155.222656 72.890625 160.511719 71.4375 164.976562 C 71.136719 165.890625 70.820312 166.785156 70.507812 167.675781 C 69.925781 169.34375 69.257812 170.027344 68.523438 170.003906 C 65.378906 170.003906 62.230469 170.003906 59.085938 170.003906 C 57.421875 170.003906 55.972656 168.054688 54.78125 163.753906 C 52.738281 156.398438 52.589844 145.308594 54.394531 137.105469 C 55.242188 133.277344 56.28125 130.503906 57.53125 128.625 C 63.511719 119.671875 69.484375 110.671875 75.464844 101.71875 C 78.375 97.371094 81.292969 93.09375 84.214844 88.773438 C 84.445312 88.371094 84.679688 87.996094 85 87.480469 Z M 85 87.480469 "/>
<path style=" stroke:none;fill-rule:nonzero;fill:rgb(0%,0%,0%);fill-opacity:1;" d="M 8.773438 142.632812 C 9.367188 142.960938 9.898438 143.289062 10.429688 143.570312 C 14.3125 145.757812 18.191406 147.941406 22.074219 150.078125 C 23.195312 150.691406 24.320312 151.230469 25.449219 151.65625 C 25.792969 151.773438 26.179688 151.632812 26.507812 151.207031 C 27.03125 150.527344 27.089844 149.351562 26.738281 147.777344 C 26.207031 145.425781 25.519531 143.757812 24.734375 142.890625 C 23.738281 141.785156 22.710938 140.914062 21.6875 140.140625 C 16.789062 136.378906 11.882812 132.714844 6.984375 128.957031 C 6.8125 128.816406 6.617188 128.4375 6.511719 127.945312 C 4.078125 117.253906 1.710938 101.109375 0.597656 87.648438 C 0.710938 87.765625 0.796875 87.8125 0.875 87.929688 C 9.886719 101.417969 18.898438 114.902344 27.902344 128.460938 C 29.90625 131.492188 31.355469 136.710938 32.042969 144.207031 C 32.925781 153.910156 31.527344 164.0625 28.808594 168.171875 C 28.042969 169.324219 27.242188 169.9375 26.417969 169.957031 C 23.234375 170.007812 20.050781 169.957031 16.867188 169.980469 C 16.054688 169.980469 15.375 168.949219 14.753906 167.140625 C 13.246094 162.746094 11.988281 157.503906 10.777344 152.125 C 10.15625 149.375 9.570312 146.507812 8.976562 143.6875 C 8.898438 143.40625 8.859375 143.101562 8.773438 142.632812 Z M 8.773438 142.632812 "/>
<path style=" stroke:none;fill-rule:nonzero;fill:rgb(0%,0%,0%);fill-opacity:1;" d="M 66.242188 177.21875 C 61.675781 190.375 55.757812 192.609375 51.617188 183.28125 C 49.363281 178.203125 47.167969 168.664062 46.632812 156.351562 C 46.167969 145.589844 47.144531 137.0625 47.621094 133.558594 C 48.867188 124.441406 50.816406 119.460938 51.820312 117.015625 C 59.449219 98.265625 68.699219 85.25 68.640625 84.660156 C 68.574219 83.980469 58.21875 96.363281 50.765625 113.960938 C 49.273438 117.488281 46.945312 123.480469 45.394531 134.148438 C 44.6875 139.035156 44.367188 143.335938 44.027344 149.066406 C 43.554688 157.011719 42.90625 170.285156 42.585938 188.871094 C 42.578125 189.132812 42.578125 189.390625 42.570312 189.648438 C 42.566406 189.390625 42.566406 189.132812 42.558594 188.871094 C 42.238281 170.308594 41.589844 157.011719 41.117188 149.066406 C 40.777344 143.335938 40.464844 139.035156 39.75 134.148438 C 38.195312 123.480469 35.871094 117.488281 34.378906 113.960938 C 26.925781 96.363281 16.570312 83.980469 16.503906 84.660156 C 16.445312 85.25 25.695312 98.265625 33.324219 117.015625 C 34.324219 119.484375 36.277344 124.441406 37.523438 133.558594 C 38 137.0625 38.976562 145.589844 38.511719 156.351562 C 37.980469 168.664062 35.78125 178.226562 33.527344 183.28125 C 29.386719 192.609375 23.46875 190.375 18.902344 177.21875 C 21.488281 178.015625 23.617188 177.453125 25.105469 176.722656 C 27.605469 175.527344 29.121094 174.726562 30.699219 170.710938 C 31.339844 169.089844 32.917969 164.953125 33.59375 157.246094 C 34.445312 147.539062 33.238281 139.199219 32.9375 137.085938 C 32.035156 130.761719 30.691406 127.261719 30.152344 125.875 C 27.003906 117.816406 15.679688 100.003906 0 79.210938 C 4.328125 66.542969 8.21875 63.066406 10.441406 61.914062 C 19.4375 57.238281 27.011719 77.1875 33.265625 93.683594 C 37.523438 104.917969 40.59375 116.171875 42.570312 124.160156 C 44.550781 116.171875 47.628906 104.917969 51.878906 93.683594 C 58.132812 77.1875 65.703125 57.214844 74.703125 61.914062 C 76.925781 63.066406 80.816406 66.542969 85.144531 79.210938 C 69.464844 100.003906 58.140625 117.816406 54.988281 125.875 C 54.453125 127.261719 53.109375 130.761719 52.207031 137.085938 C 51.90625 139.199219 50.707031 147.539062 51.550781 157.246094 C 52.226562 164.929688 53.804688 169.089844 54.445312 170.710938 C 56.023438 174.726562 57.539062 175.503906 60.039062 176.722656 C 61.519531 177.453125 63.648438 178.015625 66.242188 177.21875 Z M 66.242188 177.21875 "/>
<path style=" stroke:none;fill-rule:nonzero;fill:rgb(0%,0%,0%);fill-opacity:1;" d="M 42.589844 188.847656 L 42.589844 190.402344 C 42.582031 190.144531 42.582031 189.886719 42.574219 189.625 C 42.582031 189.367188 42.589844 189.109375 42.589844 188.847656 Z M 42.589844 188.847656 "/>
<path style=" stroke:none;fill-rule:nonzero;fill:rgb(0%,0%,0%);fill-opacity:1;" d="M 42.570312 189.625 C 42.5625 189.886719 42.5625 190.144531 42.558594 190.402344 L 42.558594 188.847656 C 42.5625 189.109375 42.570312 189.367188 42.570312 189.625 Z M 42.570312 189.625 "/>
<path style=" stroke:none;fill-rule:nonzero;fill:rgb(0%,0%,0%);fill-opacity:1;" d="M 134.398438 130.105469 C 134.398438 138.953125 133.992188 147.078125 133.179688 154.480469 C 132.367188 161.882812 131.226562 168.253906 129.753906 173.597656 C 128.285156 178.941406 126.511719 183.085938 124.445312 186.035156 C 122.375 188.984375 120.074219 190.460938 117.546875 190.460938 L 104.875 190.460938 L 104.875 69.75 L 117.546875 69.75 C 120.074219 69.75 122.375 71.253906 124.445312 74.257812 C 126.511719 77.207031 128.285156 81.355469 129.753906 86.695312 C 131.226562 91.984375 132.367188 98.328125 133.179688 105.730469 C 133.992188 113.132812 134.398438 121.257812 134.398438 130.105469 Z M 128.054688 130.105469 C 128.054688 123.484375 127.808594 117.554688 127.316406 112.324219 C 126.84375 107.039062 126.144531 102.585938 125.226562 98.96875 C 124.320312 95.292969 123.21875 92.484375 121.914062 90.535156 C 120.625 88.589844 119.171875 87.613281 117.546875 87.613281 L 111.085938 87.613281 L 111.085938 172.597656 L 117.546875 172.597656 C 119.171875 172.597656 120.625 171.621094 121.914062 169.675781 C 123.21875 167.726562 124.320312 164.945312 125.226562 161.328125 C 126.144531 157.652344 126.84375 153.199219 127.316406 147.96875 C 127.808594 142.683594 128.054688 136.726562 128.054688 130.105469 Z M 175.914062 69.75 L 175.914062 190.460938 L 170.464844 190.460938 L 170.464844 112.492188 C 170.464844 109.375 170.511719 106.007812 170.601562 102.390625 L 160.554688 170.925781 C 160.078125 174.210938 159.351562 175.851562 158.371094 175.851562 L 157.496094 175.851562 C 156.515625 175.851562 155.789062 174.210938 155.3125 170.925781 L 145.148438 102.140625 C 145.195312 103.976562 145.234375 105.785156 145.265625 107.566406 C 145.296875 109.347656 145.308594 110.988281 145.308594 112.492188 L 145.308594 190.460938 L 139.859375 190.460938 L 139.859375 69.75 L 144.527344 69.75 C 144.804688 69.75 145.042969 69.777344 145.242188 69.835938 C 145.441406 69.890625 145.617188 70.027344 145.769531 70.25 C 145.9375 70.472656 146.085938 70.835938 146.207031 71.335938 C 146.34375 71.835938 146.476562 72.503906 146.597656 73.339844 L 156.554688 140.375 C 156.816406 142.152344 157.050781 143.992188 157.265625 145.882812 C 157.496094 147.773438 157.71875 149.722656 157.933594 151.726562 C 158.148438 149.667969 158.371094 147.691406 158.601562 145.800781 C 158.832031 143.851562 159.074219 141.988281 159.335938 140.207031 L 169.15625 73.339844 C 169.277344 72.503906 169.40625 71.835938 169.546875 71.335938 C 169.683594 70.835938 169.828125 70.472656 169.984375 70.25 C 170.152344 70.027344 170.335938 69.890625 170.535156 69.835938 C 170.734375 69.777344 170.972656 69.75 171.246094 69.75 Z M 189.542969 190.460938 L 183.335938 190.460938 L 183.335938 69.75 L 189.542969 69.75 Z M 195.769531 103.390625 C 195.996094 97.605469 196.441406 92.539062 197.101562 88.199219 C 197.761719 83.800781 198.582031 80.15625 199.5625 77.261719 C 200.558594 74.3125 201.691406 72.117188 202.964844 70.667969 C 204.253906 69.167969 205.632812 68.414062 207.105469 68.414062 C 208.636719 68.414062 210.015625 69.222656 211.242188 70.835938 C 212.484375 72.394531 213.542969 74.59375 214.417969 77.429688 C 215.289062 80.214844 215.957031 83.496094 216.417969 87.28125 C 216.890625 91.066406 217.128906 95.15625 217.128906 99.550781 C 217.128906 103.390625 217.007812 106.785156 216.761719 109.738281 C 216.53125 112.628906 216.195312 115.164062 215.75 117.332031 C 215.304688 119.503906 214.753906 121.339844 214.09375 122.84375 C 213.433594 124.34375 212.691406 125.597656 211.863281 126.597656 C 213.855469 128.882812 215.34375 132.359375 216.324219 137.035156 C 217.304688 141.707031 217.796875 147.582031 217.796875 154.648438 C 217.796875 160.660156 217.488281 165.972656 216.875 170.59375 C 216.261719 175.210938 215.433594 179.105469 214.394531 182.277344 C 213.351562 185.394531 212.140625 187.761719 210.761719 189.375 C 209.394531 190.988281 207.945312 191.796875 206.414062 191.796875 C 204.742188 191.796875 203.285156 191.101562 202.046875 189.707031 C 200.804688 188.316406 199.722656 186.257812 198.804688 183.53125 C 197.882812 180.804688 197.101562 177.464844 196.457031 173.515625 C 195.8125 169.5625 195.261719 165 194.800781 159.824219 L 197.308594 156.066406 C 197.96875 155.066406 198.582031 154.816406 199.148438 155.316406 C 199.730469 155.761719 200.152344 156.875 200.414062 158.65625 C 200.6875 160.601562 200.988281 162.523438 201.308594 164.414062 C 201.648438 166.308594 202.046875 168.003906 202.503906 169.507812 C 202.964844 170.953125 203.5 172.152344 204.113281 173.097656 C 204.742188 173.988281 205.488281 174.433594 206.34375 174.433594 C 207.3125 174.433594 208.152344 173.875 208.875 172.761719 C 209.59375 171.59375 210.191406 170.089844 210.667969 168.253906 C 211.160156 166.417969 211.519531 164.386719 211.75 162.160156 C 211.992188 159.878906 212.117188 157.597656 212.117188 155.316406 C 212.117188 152.421875 212.03125 149.804688 211.863281 147.46875 C 211.695312 145.074219 211.34375 143.042969 210.804688 141.375 C 210.269531 139.707031 209.496094 138.398438 208.484375 137.453125 C 207.488281 136.503906 206.144531 136.03125 204.460938 136.03125 L 204.460938 121.339844 C 205.855469 121.285156 207.011719 120.8125 207.933594 119.921875 C 208.851562 119.03125 209.578125 117.804688 210.117188 116.246094 C 210.667969 114.632812 211.050781 112.714844 211.265625 110.488281 C 211.480469 108.261719 211.585938 105.8125 211.585938 103.140625 C 211.585938 97.464844 211.152344 93.152344 210.277344 90.203125 C 209.402344 87.253906 208.238281 85.777344 206.78125 85.777344 C 206.109375 85.777344 205.488281 86.140625 204.917969 86.863281 C 204.351562 87.53125 203.839844 88.503906 203.378906 89.785156 C 202.933594 91.007812 202.558594 92.457031 202.253906 94.125 C 201.945312 95.796875 201.714844 97.632812 201.5625 99.636719 C 201.300781 102.195312 200.957031 103.894531 200.527344 104.726562 C 200.113281 105.5625 199.523438 105.757812 198.757812 105.3125 Z M 253.1875 130.105469 C 253.1875 138.953125 252.78125 147.078125 251.96875 154.480469 C 251.15625 161.882812 250.015625 168.253906 248.542969 173.597656 C 247.070312 178.941406 245.300781 183.085938 243.230469 186.035156 C 241.160156 188.984375 238.863281 190.460938 236.332031 190.460938 L 223.664062 190.460938 L 223.664062 69.75 L 236.332031 69.75 C 238.863281 69.75 241.160156 71.253906 243.230469 74.257812 C 245.300781 77.207031 247.070312 81.355469 248.542969 86.695312 C 250.015625 91.984375 251.15625 98.328125 251.96875 105.730469 C 252.78125 113.132812 253.1875 121.257812 253.1875 130.105469 Z M 246.839844 130.105469 C 246.839844 123.484375 246.59375 117.554688 246.105469 112.324219 C 245.628906 107.039062 244.933594 102.585938 244.011719 98.96875 C 243.109375 95.292969 242.003906 92.484375 240.703125 90.535156 C 239.414062 88.589844 237.957031 87.613281 236.332031 87.613281 L 229.871094 87.613281 L 229.871094 172.597656 L 236.332031 172.597656 C 237.957031 172.597656 239.414062 171.621094 240.703125 169.675781 C 242.003906 167.726562 243.109375 164.945312 244.011719 161.328125 C 244.933594 157.652344 245.628906 153.199219 246.105469 147.96875 C 246.59375 142.683594 246.839844 136.726562 246.839844 130.105469 Z M 246.839844 130.105469 "/>
</g>
</svg>
