<svg xmlns="http://www.w3.org/2000/svg" enable-background="new 0 0 512 512" viewBox="0 0 512 512"><g id="_x31_3_Electromagnetic_Waves"><g><path d="m42.516 377.895c2.558 1.869 6.141 1.299 8-1.247l87.134-119.27c.716-.98 1.101-2.164 1.101-3.377v-108.582c0-3.163-2.562-5.725-5.725-5.725s-5.725 2.562-5.725 5.725v106.713l-86.032 117.763c-1.864 2.553-1.307 6.134 1.247 8z" fill="#bababa"/><path d="m63.774 393.314c2.558 1.869 6.141 1.299 8-1.247l80.418-110.09h4.153c.63.836 1.305 1.693 2.029 2.568 3.024 3.661 9.079 2.275 10.009-2.568h127.525c2.119 2.657 4.325 5.267 6.742 7.762 31.855 32.887 78.54 36.545 111.857-7.762h14.233c3.161 0 5.725-2.562 5.725-5.725s-2.564-5.725-5.725-5.725c-32.125 0-95.017 0-127.192 0-3.402-4.72-6.456-9.672-9.319-14.808h136.51c3.161 0 5.725-2.562 5.725-5.725s-2.564-5.725-5.725-5.725h-13.458c-.523-1.18-1.056-2.356-1.57-3.539-2.757-6.347-12.355-3.193-10.83 3.539h-105.39c.309-.621.623-1.239.932-1.86 3.37-6.771-6.883-11.887-10.25-5.099-.908 1.824-1.825 3.648-2.744 5.469-.956-1.901-1.909-3.815-2.869-5.743-2.199-4.417-4.398-8.83-6.694-13.194-6.102-11.521-14.862-25.322-28.789-33.086-.474-13.755-11.768-24.808-25.62-24.808-14.171 0-25.697 11.528-25.697 25.697 0 .045.007.089.007.134-5.262 2.701-10.225 6.081-14.496 9.976-7.136 6.496-12.131 14.09-16.26 22.009v-78.345c0-3.163-2.562-5.725-5.725-5.725s-5.725 2.562-5.725 5.725v104.576c0 3.097 2.571 5.727 5.721 5.727.004 0 .009-.002.013-.002h119.922c2.644 5.008 5.459 9.968 8.54 14.808h-5.373c.64-5.99-7.154-8.72-10.435-3.781-.854 1.283-1.775 2.527-2.677 3.781h-119.987c-1.828 0-3.545.872-4.624 2.348l-82.134 112.438c-1.864 2.553-1.306 6.135 1.247 8zm157.682-215.916c7.838 0 14.216 6.392 14.216 14.247 0 7.838-6.377 14.214-14.216 14.214-7.857 0-14.245-6.375-14.245-14.214 0-7.855 6.388-14.247 14.245-14.247zm-53.364 66.872c.027-.062.055-.123.082-.184 5.559-12.736 10.809-24.763 20.807-33.865 2.874-2.622 6.142-4.944 9.601-6.938 4.257 8.312 12.901 14.027 22.874 14.027 10.209 0 19.019-6.007 23.15-14.658 9.645 6.661 16.297 17.41 21.136 26.536 2.247 4.275 4.406 8.612 6.564 12.952.352.708.711 1.421 1.065 2.13zm142.988 37.708h88.344c-29.362 30.506-62.712 26.218-88.344 0z" fill="#bababa"/><path d="m502.249 269.026-43.624 28.396c-5.458 3.549-12.709-.343-12.709-6.908v-56.753c0-6.527 7.252-10.458 12.709-6.908l43.624 28.396c5 3.243 5 10.533 0 13.777z" fill="#bababa"/><path d="m65.778 424.593-48.586 18.663c-5.534 2.137-11.45-2.137-11.183-8.091l2.595-51.983c.344-6.565 7.786-10.076 13.053-6.259l45.991 33.319c5.305 3.817 4.198 11.985-1.87 14.351z" fill="#bababa"/><path d="m181.575 115.521c3.549 5.496-.382 12.747-6.908 12.747h-56.792c-6.526 0-10.458-7.251-6.908-12.747l28.396-43.586c3.244-5 10.534-5 13.816 0z" fill="#bababa"/><path d="m214.714 314.728c2.728-.101 5.524-.384 8.312-.844 3.12-.514 5.233-3.461 4.719-6.58-.518-3.122-3.451-5.229-6.582-4.717-2.311.382-4.622.617-6.865.699-3.161.116-5.628 2.771-5.513 5.932.116 3.088 2.654 5.514 5.718 5.514.069 0 .14-.002.211-.004z" fill="#bababa"/><path d="m185.985 308.098c2.766 1.562 6.25.577 7.801-2.165 1.556-2.753.587-6.245-2.165-7.801-1.882-1.064-3.876-2.344-5.928-3.802-2.577-1.837-6.15-1.232-7.982 1.347-1.834 2.576-1.23 6.15 1.347 7.982 2.37 1.688 4.701 3.181 6.927 4.439z" fill="#bababa"/><path d="m359.053 191.502c-1.036 2.987.548 6.249 3.533 7.285 2.151.745 4.297 1.644 6.377 2.671 2.848 1.405 6.276.224 7.667-2.602 1.401-2.835.235-6.267-2.598-7.667-2.508-1.237-5.099-2.32-7.697-3.222-3-1.035-6.25.546-7.282 3.535z" fill="#bababa"/><path d="m305.81 206.599c-1.573 2.035-3.146 4.273-4.674 6.653-1.711 2.659-.939 6.202 1.722 7.911 2.675 1.718 6.214.92 7.909-1.724 1.349-2.1 2.728-4.064 4.1-5.837 1.934-2.501 1.476-6.096-1.025-8.03-2.505-1.936-6.098-1.476-8.032 1.027z" fill="#bababa"/><path d="m249.902 304.003c2.337-1.357 4.648-2.849 6.869-4.439 2.572-1.839 3.164-5.416 1.323-7.987-1.841-2.57-5.416-3.161-7.987-1.323-1.927 1.379-3.928 2.674-5.952 3.85-2.736 1.588-3.664 5.091-2.076 7.825 1.597 2.752 5.109 3.656 7.823 2.074z" fill="#bababa"/><path d="m336.977 185.643c-2.942.619-5.747 1.508-8.304 2.579-2.918 1.219-4.294 4.571-3.075 7.488 1.22 2.923 4.581 4.295 7.488 3.075 1.992-.83 4.075-1.482 6.247-1.938 3.094-.65 5.076-3.686 4.424-6.78-.653-3.097-3.705-5.071-6.78-4.424z" fill="#bababa"/><path d="m388.617 208.41c-2.475 1.968-2.885 5.57-.917 8.045 1.401 1.765 2.773 3.692 4.07 5.727 1.692 2.666 5.234 3.452 7.902 1.754 2.669-1.7 3.451-5.237 1.752-7.904-1.51-2.372-3.112-4.627-4.763-6.703-1.965-2.473-5.565-2.881-8.044-.919z" fill="#bababa"/></g></g><g id="Layer_1"/></svg>