<svg xmlns="http://www.w3.org/2000/svg" xmlns:svg="http://www.w3.org/2000/svg" id="svg525" clip-rule="evenodd" fill-rule="evenodd" height="512" stroke-linejoin="round" stroke-miterlimit="2" viewBox="0 0 32 32" width="512"><path id="path518" d="m4.58 7.907c-1.63 2.285-2.58 5.079-2.58 8.093 0 7.727 6.27 14 14 14 2.29 0 4.45-.551 6.36-1.527.49-.251.69-.854.44-1.345-.26-.492-.86-.687-1.35-.435-1.64.836-3.49 1.307-5.45 1.307-6.62 0-12-5.377-12-12 0-2.48.75-4.786 2.05-6.7.12.406.5.7.95.7.55 0 1-.448 1-1v-2c0-.552-.45-1-1-1h-2c-.55 0-1 .448-1 1 0 .401.24.747.58.907zm13.47-1.475c-.15-.177-.37-.292-.6-.327-.96-.14-1.94-.14-2.9 0-.23.035-.45.15-.6.327l-1.3 1.472s-1.96-.12-1.96-.12c-.24-.015-.47.055-.66.196-.78.579-1.47 1.269-2.05 2.047-.14.19-.21.423-.2.659l.12 1.961s-1.47 1.301-1.47 1.301c-.17.156-.29.37-.32.604-.15.96-.15 1.936 0 2.896.03.234.15.448.32.604l1.47 1.301s-.12 1.961-.12 1.961c-.01.236.06.469.2.659.58.778 1.27 1.468 2.05 2.047.19.141.42.211.66.196l1.96-.12s1.3 1.472 1.3 1.472c.15.177.37.292.6.327.96.14 1.94.14 2.9 0 .23-.035.45-.15.6-.327l1.3-1.472s1.96.12 1.96.12c.24.015.47-.055.66-.196.78-.579 1.47-1.269 2.05-2.047.14-.19.21-.423.2-.659l-.12-1.961s1.47-1.301 1.47-1.301c.18-.156.29-.37.32-.604.15-.96.15-1.936 0-2.896-.03-.234-.14-.448-.32-.604l-1.47-1.301s.12-1.961.12-1.961c.01-.236-.06-.469-.2-.659-.58-.778-1.27-1.468-2.05-2.047-.19-.141-.42-.211-.66-.196l-1.96.12s-1.3-1.472-1.3-1.472zm7.9 16.268c-.12-.406-.5-.7-.95-.7-.55 0-1 .448-1 1v2c0 .552.45 1 1 1h2c.55 0 1-.448 1-1 0-.401-.24-.747-.58-.907 1.63-2.285 2.58-5.079 2.58-8.093 0-7.727-6.27-14-14-14-2.35 0-4.57.583-6.52 1.611-.49.258-.68.863-.42 1.351s.86.675 1.35.418c1.67-.881 3.57-1.38 5.59-1.38 6.62 0 12 5.377 12 12 0 2.48-.75 4.786-2.05 6.7zm-9.15-14.659 1.38 1.554c.2.23.5.354.81.335l2.07-.127c.42.34.8.721 1.14 1.137 0 .001-.13 2.071-.13 2.071-.02.308.1.607.33.811l1.56 1.374c.05.535.05 1.073 0 1.608 0 0-1.56 1.374-1.56 1.374-.23.204-.35.503-.33.811l.13 2.07c-.34.417-.72.798-1.14 1.138 0 0-2.07-.127-2.07-.127-.31-.019-.61.105-.81.335l-1.38 1.554c-.53.054-1.07.054-1.6.001 0-.001-1.38-1.555-1.38-1.555-.2-.23-.5-.354-.81-.335l-2.07.127c-.42-.34-.8-.721-1.14-1.137 0-.001.13-2.071.13-2.071.02-.308-.1-.607-.33-.811l-1.56-1.374c-.05-.535-.05-1.073 0-1.608 0 0 1.56-1.374 1.56-1.374.23-.204.35-.503.33-.811l-.13-2.07c.34-.417.72-.798 1.14-1.138 0 0 2.07.127 2.07.127.31.019.61-.105.81-.335l1.38-1.554c.53-.054 1.07-.055 1.6-.001zm-.8 1.959c-3.31 0-6 2.689-6 6s2.69 6 6 6 6-2.689 6-6-2.69-6-6-6zm0 2c2.21 0 4 1.792 4 4s-1.79 4-4 4-4-1.792-4-4 1.79-4 4-4zm-.89 1.553-1 2c-.16.31-.14.678.04.973s.5.474.85.474h.38s-.27.553-.27.553c-.25.493-.05 1.095.44 1.341.5.247 1.1.047 1.34-.447l1-2c.16-.31.14-.678-.04-.973s-.5-.474-.85-.474h-.38s.27-.553.27-.553c.25-.493.05-1.095-.44-1.341-.5-.247-1.1-.047-1.34.447z" fill="#bababa"/></svg>