<svg width="61" height="60" viewBox="0 0 61 60" fill="none" xmlns="http://www.w3.org/2000/svg">
<g id="fi_7183302">
<g id="Layer 2">
<path id="Vector" d="M23 31.875H9.875C8.38316 31.875 6.95242 32.4676 5.89752 33.5225C4.84263 34.5774 4.25 36.0082 4.25 37.5V50.625C4.25 52.1168 4.84263 53.5476 5.89752 54.6025C6.95242 55.6574 8.38316 56.25 9.875 56.25H23C24.4918 56.25 25.9226 55.6574 26.9775 54.6025C28.0324 53.5476 28.625 52.1168 28.625 50.625V37.5C28.625 36.0082 28.0324 34.5774 26.9775 33.5225C25.9226 32.4676 24.4918 31.875 23 31.875ZM24.875 50.625C24.875 51.1223 24.6775 51.5992 24.3258 51.9508C23.9742 52.3025 23.4973 52.5 23 52.5H9.875C9.37772 52.5 8.90081 52.3025 8.54918 51.9508C8.19754 51.5992 8 51.1223 8 50.625V37.5C8 37.0027 8.19754 36.5258 8.54918 36.1742C8.90081 35.8225 9.37772 35.625 9.875 35.625H23C23.4973 35.625 23.9742 35.8225 24.3258 36.1742C24.6775 36.5258 24.875 37.0027 24.875 37.5V50.625Z" fill="#888888"/>
<path id="Vector_2" d="M44.5625 31.875C42.152 31.875 39.7957 32.5898 37.7915 33.929C35.7873 35.2681 34.2252 37.1716 33.3027 39.3985C32.3803 41.6255 32.1389 44.076 32.6092 46.4402C33.0794 48.8043 34.2402 50.9759 35.9446 52.6804C37.6491 54.3848 39.8207 55.5456 42.1848 56.0158C44.549 56.4861 46.9995 56.2447 49.2265 55.3223C51.4534 54.3998 53.3569 52.8377 54.696 50.8335C56.0352 48.8293 56.75 46.473 56.75 44.0625C56.746 40.8314 55.4607 37.7338 53.176 35.449C50.8912 33.1643 47.7936 31.879 44.5625 31.875ZM44.5625 52.5C42.8937 52.5 41.2624 52.0051 39.8749 51.078C38.4873 50.1509 37.4059 48.8331 36.7673 47.2914C36.1287 45.7496 35.9616 44.0531 36.2871 42.4164C36.6127 40.7797 37.4163 39.2763 38.5963 38.0963C39.7763 36.9163 41.2797 36.1127 42.9164 35.7871C44.5531 35.4616 46.2496 35.6287 47.7914 36.2673C49.3331 36.9059 50.6509 37.9873 51.578 39.3749C52.5052 40.7624 53 42.3937 53 44.0625C52.9975 46.2995 52.1078 48.4442 50.526 50.026C48.9442 51.6078 46.7995 52.4975 44.5625 52.5Z" fill="#888888"/>
<path id="Vector_3" d="M22.2106 28.125H38.7894C39.7901 28.1249 40.7727 27.8579 41.6358 27.3515C42.4988 26.8451 43.2112 26.1176 43.6994 25.244C44.1876 24.3705 44.4339 23.3825 44.4129 22.382C44.3919 21.3815 44.1044 20.4048 43.58 19.5525L35.2906 6.08059C34.7872 5.26243 34.0826 4.58684 33.244 4.11822C32.4053 3.6496 31.4607 3.40356 30.5 3.40356C29.5394 3.40356 28.5947 3.6496 27.7561 4.11822C26.9175 4.58684 26.2129 5.26243 25.7094 6.08059L17.42 19.5525C16.8957 20.4048 16.6082 21.3815 16.5872 22.382C16.5662 23.3825 16.8125 24.3705 17.3007 25.244C17.7888 26.1176 18.5012 26.8451 19.3643 27.3515C20.2274 27.8579 21.21 28.1249 22.2106 28.125ZM20.615 21.5193L28.9025 8.04747C29.0707 7.77614 29.3053 7.55223 29.5842 7.39696C29.8631 7.24168 30.1771 7.16019 30.4963 7.16019C30.8155 7.16019 31.1294 7.24168 31.4083 7.39696C31.6872 7.55223 31.9219 7.77614 32.09 8.04747L40.3775 21.5193C40.5514 21.8028 40.6469 22.1274 40.654 22.4598C40.6611 22.7923 40.5797 23.1207 40.4181 23.4113C40.2564 23.7019 40.0204 23.9443 39.7342 24.1137C39.448 24.283 39.1219 24.3732 38.7894 24.375H22.2106C21.8775 24.3745 21.5504 24.2853 21.2632 24.1165C20.9759 23.9477 20.7389 23.7054 20.5763 23.4146C20.4138 23.1237 20.3317 22.7948 20.3385 22.4617C20.3453 22.1286 20.4408 21.8033 20.615 21.5193Z" fill="#888888"/>
</g>
</g>
</svg>
